<svg width="135" height="39" fill="none" xmlns="http://www.w3.org/2000/svg"><path fill-rule="evenodd" clip-rule="evenodd" d="M112.72 0v5.52h16.24v16.347h5.52V0h-21.76Z" fill="#F90"/><path fill-rule="evenodd" clip-rule="evenodd" d="M22.747 38.107H18.16L14.48 26.88 10.8 38.107H6.267L0 15.333h5.867l2.96 12.027 3.68-12.027h3.973l3.68 12.027 2.96-12.027h5.867l-6.24 22.774ZM37.707 38.107V15.333h15.466v4.987H43.28v3.813h8.453v4.987H43.28v4h9.893v4.987H37.707ZM63.547 38.107V15.333h5.6v22.774h-5.6ZM86.64 38.293a11.04 11.04 0 0 1-8.613-3.013l3.573-3.573a7.44 7.44 0 0 0 5.093 1.6c2.187 0 3.254-.747 3.254-2.054a1.893 1.893 0 0 0-.454-1.333A2.667 2.667 0 0 0 88 29.333l-2.667-.373a7.653 7.653 0 0 1-4.586-2.027 6.347 6.347 0 0 1-1.574-4.56c0-4.16 3.147-7.2 8.32-7.2 2.82-.222 5.605.745 7.68 2.667l-3.6 3.493a5.653 5.653 0 0 0-4.32-1.36c-1.946 0-2.666 1.12-2.666 2.107.007.4.17.783.453 1.067a2.48 2.48 0 0 0 1.573.666l2.667.4a7.52 7.52 0 0 1 4.48 1.867 6.72 6.72 0 0 1 1.68 4.987c0 4.693-4 7.226-8.8 7.226ZM111.84 38.293c-3.18.29-6.33-.81-8.64-3.013l3.467-3.573a7.52 7.52 0 0 0 5.093 1.6c2.213 0 3.253-.747 3.253-2.054a2.001 2.001 0 0 0-.426-1.333 2.67 2.67 0 0 0-1.52-.613l-2.667-.374a7.654 7.654 0 0 1-4.56-2.026 6.242 6.242 0 0 1-1.573-4.56c0-4.16 3.12-7.2 8.32-7.2a10.08 10.08 0 0 1 7.653 2.666l-3.467 3.52a5.652 5.652 0 0 0-4.32-1.36c-1.973 0-2.666 1.12-2.666 2.107.007.4.169.783.453 1.067a2.48 2.48 0 0 0 1.573.666l2.667.4a7.52 7.52 0 0 1 4.48 1.867 6.618 6.618 0 0 1 1.707 4.987c-.027 4.693-4.027 7.226-8.827 7.226Z" fill="#263640"/></svg>